<?xml version="1.0" encoding="UTF-8" standalone="no"?>
<!DOCTYPE svg PUBLIC "-//W3C//DTD SVG 1.1//EN" "http://www.w3.org/Graphics/SVG/1.1/DTD/svg11.dtd">
<!--Generated by Intaglio, www.PurgatoryDesign.com-->
<svg version="1.1" viewBox="0,0,734,576" width="734" height="576" xmlns="http://www.w3.org/2000/svg" xmlns:xlink="http://www.w3.org/1999/xlink" xmlns:intaglio="http://purgatorydesign.com/namespaces/intaglio" intaglio:grid="36,36,1,1,0.5,#9999bf,1,0,0,0" intaglio:guides="0.8,#f0f,0,1"><path fill="none" stroke="#000100" d="M119,222 L623,222"/><path fill="none" stroke="#000100" d="M119,307.667 L624,307.667"/><path fill="#fffffe" stroke="#000100" d="M635,265 C635,288.748,629.404,308,622.5,308 C615.596,308,610,288.748,610,265 C610,241.252,615.596,222,622.5,222 C629.404,222,635,241.252,635,265 Z"/><path fill="none" stroke="#000100" d="M119.083,222.333 C119.083,222.333,116.269,223.147,115.083,224.333 C112.712,226.705,112.247,229.188,111.083,232.333 C110.01,235.234,109.678,237.299,109.083,240.333 C108.574,242.936,108.373,244.698,108.083,247.333 C107.55,252.194,107.271,255.448,107.083,260.333 C106.968,263.331,106.976,265.335,107.083,268.333 C107.271,273.593,107.523,277.1,108.083,282.333 C108.365,284.97,108.574,286.731,109.083,289.333 C109.678,292.368,110.01,294.433,111.083,297.333 C112.247,300.479,113.122,302.612,115.083,305.333 C115.703,306.194,116.223,306.713,117.083,307.333 C117.764,307.824,119.083,308.333,119.083,308.333 L119.083,308.333 L119.083,308.333"/><path fill="none" stroke="#000100" stroke-dasharray="2" d="M119.018,222.334 C119.018,222.334,121.832,223.148,123.018,224.334 C125.389,226.706,125.854,229.188,127.018,232.334 C128.091,235.234,128.423,237.299,129.018,240.334 C129.527,242.936,129.728,244.698,130.018,247.334 C130.551,252.194,130.83,255.448,131.018,260.334 C131.133,263.332,131.125,265.336,131.018,268.334 C130.83,273.594,130.578,277.1,130.018,282.334 C129.736,284.971,129.527,286.732,129.018,289.334 C128.423,292.369,128.091,294.434,127.018,297.334 C125.854,300.48,124.979,302.613,123.018,305.334 C122.398,306.194,121.878,306.714,121.018,307.334 C120.337,307.824,119.018,308.334,119.018,308.334 L119.018,308.334 L119.018,308.334"/><g><g><path fill="none" stroke="#000100" d="M372.083,221.667 C372.083,221.667,369.269,222.481,368.083,223.667 C365.712,226.038,365.247,228.521,364.083,231.667 C363.01,234.567,362.678,236.632,362.083,239.667 C361.574,242.269,361.373,244.031,361.083,246.667 C360.55,251.527,360.271,254.781,360.083,259.667 C359.968,262.664,359.976,264.669,360.083,267.667 C360.271,272.927,360.523,276.433,361.083,281.667 C361.365,284.303,361.574,286.064,362.083,288.667 C362.678,291.701,363.01,293.766,364.083,296.667 C365.247,299.812,366.122,301.946,368.083,304.667 C368.703,305.527,369.223,306.046,370.083,306.667 C370.764,307.157,372.083,307.667,372.083,307.667 L372.083,307.667 L372.083,307.667"/><path fill="none" stroke="#000100" stroke-dasharray="2" d="M372.018,221.667 C372.018,221.667,374.832,222.481,376.018,223.667 C378.389,226.039,378.854,228.522,380.018,231.667 C381.091,234.568,381.423,236.633,382.018,239.667 C382.527,242.269,382.728,244.031,383.018,246.667 C383.551,251.527,383.83,254.781,384.018,259.667 C384.133,262.665,384.125,264.669,384.018,267.667 C383.83,272.927,383.578,276.434,383.018,281.667 C382.736,284.304,382.527,286.065,382.018,288.667 C381.423,291.702,381.091,293.767,380.018,296.667 C378.854,299.813,377.979,301.946,376.018,304.667 C375.398,305.528,374.878,306.047,374.018,306.667 C373.337,307.158,372.018,307.667,372.018,307.667 L372.018,307.667 L372.018,307.667"/></g><g><path fill="none" stroke="#000100" d="M352.083,222 C352.083,222,349.269,222.814,348.083,224 C345.712,226.372,345.247,228.854,344.083,232 C343.01,234.9,342.678,236.965,342.083,240 C341.574,242.602,341.373,244.364,341.083,247 C340.55,251.86,340.271,255.114,340.083,260 C339.968,262.998,339.976,265.002,340.083,268 C340.271,273.26,340.523,276.767,341.083,282 C341.365,284.637,341.574,286.398,342.083,289 C342.678,292.035,343.01,294.1,344.083,297 C345.247,300.146,346.122,302.279,348.083,305 C348.703,305.86,349.223,306.38,350.083,307 C350.764,307.49,352.083,308,352.083,308 L352.083,308 L352.083,308"/><path fill="none" stroke="#000100" stroke-dasharray="2" d="M352,222.001 C352,222.001,354.814,222.815,356,224.001 C358.372,226.373,358.836,228.855,360,232.001 C361.073,234.901,361.406,236.967,362,240.001 C362.51,242.603,362.711,244.365,363,247.001 C363.534,251.861,363.812,255.115,364,260.001 C364.115,262.999,364.107,265.003,364,268.001 C363.812,273.261,363.56,276.768,363,282.001 C362.718,284.638,362.51,286.399,362,289.001 C361.406,292.036,361.073,294.101,360,297.001 C358.836,300.147,357.961,302.28,356,305.001 C355.38,305.862,354.86,306.381,354,307.001 C353.32,307.492,352,308.001,352,308.001 L352,308.001 L352,308.001"/></g></g><path fill="none" stroke="#000100" d="M346.833,226 L366,226"/><path fill="none" stroke="#000100" d="M348.333,224 L367.333,224"/><path fill="none" stroke="#000100" d="M344.833,229 L365,229"/><path fill="none" stroke="#000100" d="M343.333,233 L363.5,233"/><path fill="none" stroke="#000100" d="M342.167,239 L362.333,239"/><path fill="none" stroke="#000100" d="M340.75,247.167 L360.917,247.167"/><path fill="none" stroke="#000100" d="M340.167,265 L360.167,265"/><path fill="none" stroke="#000100" d="M347.667,303.667 L366.833,303.667"/><path fill="none" stroke="#000100" d="M349.167,305.667 L368.167,305.667"/><path fill="none" stroke="#000100" d="M345.667,300.667 L365.833,300.667"/><path fill="none" stroke="#000100" d="M344.167,296.667 L364.333,296.667"/><path fill="none" stroke="#000100" d="M343,290.667 L363.167,290.667"/><path fill="none" stroke="#000100" d="M341.583,282.5 L361.75,282.5"/><path fill="none" stroke="#000100" stroke-dasharray="2" d="M376.667,224 L357.5,224"/><path fill="none" stroke="#000100" stroke-dasharray="2" d="M375.167,222 L356.167,222"/><path fill="none" stroke="#000100" stroke-dasharray="2" d="M378.667,227 L358.5,227"/><path fill="none" stroke="#000100" stroke-dasharray="2" d="M380.167,231 L360,231"/><path fill="none" stroke="#000100" stroke-dasharray="2" d="M381.333,237 L361.167,237"/><path fill="none" stroke="#000100" stroke-dasharray="2" d="M382.75,245.167 L362.583,245.167"/><path fill="none" stroke="#000100" stroke-dasharray="2" d="M383.333,263 L363.333,263"/><path fill="none" stroke="#000100" stroke-dasharray="2" d="M375.833,301.667 L356.667,301.667"/><path fill="none" stroke="#000100" stroke-dasharray="2" d="M374.333,303.667 L355.333,303.667"/><path fill="none" stroke="#000100" stroke-dasharray="2" d="M377.833,298.667 L357.667,298.667"/><path fill="none" stroke="#000100" stroke-dasharray="2" d="M379.333,294.667 L359.167,294.667"/><path fill="none" stroke="#000100" stroke-dasharray="2" d="M380.5,288.667 L360.333,288.667"/><path fill="none" stroke="#000100" stroke-dasharray="2" d="M381.917,280.5 L361.75,280.5"/><g><path fill="none" intaglio:arrow-end="1" stroke="#000100" d="M372,263 L411.5,263" intaglio:d="M372,263 L421,263"/><path fill="#000100" intaglio:omit="yes" d="M411,259 L421,263 L411,267"/></g><text font-family="Times" font-size="14" transform="matrix(1,0,0,1,432,267)" xml:space="preserve"><tspan>Shockwave, U</tspan></text><text font-family="Times" font-size="14" transform="matrix(1,0,0,1,397.333,299)" xml:space="preserve"><tspan>P</tspan><tspan baseline-shift="sub">0</tspan><tspan>, </tspan><tspan font-family="STIXGeneral">ğœŒ</tspan><tspan baseline-shift="sub">0</tspan><tspan>, e</tspan><tspan baseline-shift="sub">0</tspan><tspan>, u</tspan><tspan baseline-shift="sub">0</tspan></text><text font-family="Times" font-size="14" transform="matrix(1,0,0,1,258.333,299)" xml:space="preserve"><tspan>P</tspan><tspan baseline-shift="sub">1</tspan><tspan>, </tspan><tspan font-family="STIXGeneral">ğœŒ</tspan><tspan baseline-shift="sub">1</tspan><tspan>, e</tspan><tspan baseline-shift="sub">1</tspan><tspan>, u</tspan><tspan baseline-shift="sub">1</tspan></text><text font-family="Times" font-size="14" transform="matrix(1,0,0,1,373,128)" xml:space="preserve"><tspan>Reaction Zone</tspan></text><g><path fill="none" intaglio:arrow-end="1" stroke="#000100" d="M371,124 L364.445,166.61" intaglio:d="M371,124 L363,176"/><path fill="#000100" intaglio:omit="yes" d="M368.474,166.725 L363,176 L360.567,165.508"/></g><path fill="none" stroke="#000100" d="M352,211 L352,168"/><path fill="none" stroke="#000100" d="M373,211 L373,168"/><text font-family="Times" font-size="14" transform="matrix(1,0,0,1,370,162)" xml:space="preserve"><tspan font-family="STIXGeneral">ğ€</tspan><tspan baseline-shift="sub">0</tspan></text><text font-family="Times" font-size="14" transform="matrix(1,0,0,1,347.333,162)" xml:space="preserve"><tspan font-family="STIXGeneral">ğ€</tspan><tspan baseline-shift="sub">1</tspan></text><path fill="none" stroke="#000100" d="M352.333,176 L373.333,176"/></svg>
