<?xml version="1.0" encoding="UTF-8" standalone="no"?>
<!DOCTYPE svg PUBLIC "-//W3C//DTD SVG 1.1//EN" "http://www.w3.org/Graphics/SVG/1.1/DTD/svg11.dtd">
<!--Generated by Intaglio, www.PurgatoryDesign.com-->
<svg version="1.1" viewBox="0,0,733.68,733.68" width="733.68" height="733.68" xmlns="http://www.w3.org/2000/svg" xmlns:xlink="http://www.w3.org/1999/xlink" xmlns:intaglio="http://purgatorydesign.com/namespaces/intaglio" intaglio:grid="36,36,1,1,0.5,#9999bf,1,0,0,0" intaglio:guides="0.8,#f0f,1,1"><path fill="#fffffe" stroke="#000100" stroke-width="3" d="M374,500 C374,500,251.89,429.5,251.89,429.5 C251.89,429.5,251.89,288.5,251.89,288.5 C251.89,288.5,374,218,374,218 C374,218,496.11,288.5,496.11,288.5 C496.11,288.5,496.11,429.5,496.11,429.5 C496.11,429.5,374,500,374,500 Z"/><path fill="none" stroke="#000100" stroke-width="3" d="M271,418 L374,478"/><path fill="none" stroke="#000100" stroke-width="3" d="M271.108,299.185 L373.892,238.815"/><path fill="none" stroke="#000100" stroke-width="3" d="M477.244,418.6 L477.756,299.4"/><path fill="none" stroke="#000100" stroke-width="3" d="M374,218 L374,126"/><path fill="none" stroke="#000100" stroke-width="3" d="M496.11,288.5 L575.772,242.479"/><path fill="none" stroke="#000100" stroke-width="3" d="M373.892,592 L373.892,500"/><path fill="none" stroke="#000100" stroke-width="3" d="M171.768,242.479 L251.89,288.5"/><text fill="#000100" font-family="Times New Roman" font-size="48" transform="matrix(1,0,0,1,331.592,115.838)" xml:space="preserve"><tspan>CH</tspan><tspan baseline-shift="sub">3</tspan></text><text fill="#000100" font-family="Times New Roman" font-size="48" transform="matrix(1,0,0,1,73.5922,241.838)" xml:space="preserve"><tspan>O</tspan><tspan baseline-shift="sub">2</tspan><tspan>N</tspan></text><text fill="#000100" font-family="Times New Roman" font-size="48" transform="matrix(1,0,0,1,585.592,241.837)" xml:space="preserve"><tspan>NO</tspan><tspan baseline-shift="sub">2</tspan></text><text fill="#000100" font-family="Times New Roman" font-size="48" transform="matrix(1,0,0,1,330.746,636.837)" xml:space="preserve"><tspan>NO</tspan><tspan baseline-shift="sub">2</tspan></text></svg>
