<?xml version="1.0" encoding="UTF-8" standalone="no"?>
<!DOCTYPE svg PUBLIC "-//W3C//DTD SVG 1.1//EN" "http://www.w3.org/Graphics/SVG/1.1/DTD/svg11.dtd">
<!--Generated by Intaglio, www.PurgatoryDesign.com-->
<svg version="1.1" viewBox="0,0,734,576" width="734" height="576" xmlns="http://www.w3.org/2000/svg" xmlns:xlink="http://www.w3.org/1999/xlink" xmlns:intaglio="http://purgatorydesign.com/namespaces/intaglio" intaglio:grid="36,36,1,1,0.5,#9999bf,1,0,0,0" intaglio:guides="0.8,#f0f,1,1"><defs><linearGradient id="600002b89140" gradientUnits="userSpaceOnUse"><stop offset="0" stop-color="#fb0207"/><stop offset="1" stop-color="#fff"/></linearGradient></defs><linearGradient id="600000734a50" xlink:href="#600002b89140" x1="20" y1="213.333" x2="711" y2="313.333"/><path fill="url(#600000734a50)" stroke="#800002" stroke-width="2" d="M20,262.981 L140,213.333 L124,239.742 L711,239.742 L711,286.925 L124,286.925 L140,313.333 L20,262.981 Z"/><path fill="none" stroke="#800002" stroke-width="2" d="M541.333,240 L541.333,286.667"/><path fill="#800002" stroke="#800002" stroke-width="2" d="M193.333,240 L193.333,286.667"/><path fill="none" stroke="#800002" stroke-width="2" d="M289.333,240 L289.333,263.333"/><text fill="#fff" font-family="Times New Roman" font-size="18" transform="matrix(1,0,0,1,83.0835,261.617)" xml:space="preserve"><tspan>High to</tspan></text><text fill="#fff" font-family="Times New Roman" font-size="18" transform="matrix(1,0,0,1,64.6572,278)" xml:space="preserve"><tspan>Catastrophic</tspan></text><text fill="#fff" font-family="Times New Roman" font-size="18" transform="matrix(1,0,0,1,226.657,282.817)" xml:space="preserve"><tspan>High to Moderate</tspan></text><text fill="#fff" font-family="Times New Roman" font-size="18" transform="matrix(1,0,0,1,364.991,256.817)" xml:space="preserve"><tspan>Moderate</tspan></text><text fill="#fff" font-family="Times New Roman" font-size="18" text-anchor="middle" transform="matrix(1,0,0,1,626.89,259.459)" xml:space="preserve"><tspan>Moderate to</tspan><tspan x="0" y="20">Low</tspan></text><path fill="none" stroke="#800002" stroke-width="2" d="M438.667,250.691 L541.333,250.691"/><path fill="none" stroke="#800002" stroke-width="2" d="M676.667,263.333 L711,263.333"/><path fill="none" stroke="#800002" stroke-width="2" d="M359,277.024 L541.333,277.024"/><path fill="none" stroke="#800002" stroke-width="2" d="M289.333,251.667 L359,251.667"/><path fill="none" stroke="#800002" stroke-width="2" d="M193.333,277.024 L216.667,277.024"/><text font-family="Times New Roman" font-size="36" transform="matrix(1,0,0,1,365.944,323.663)" xml:space="preserve"><tspan>Risk</tspan></text></svg>
