<?xml version="1.0" encoding="UTF-8" standalone="no"?>
<!DOCTYPE svg PUBLIC "-//W3C//DTD SVG 1.1//EN" "http://www.w3.org/Graphics/SVG/1.1/DTD/svg11.dtd">
<!--Generated by Intaglio, www.PurgatoryDesign.com-->
<svg version="1.1" viewBox="0,0,734,576" width="734" height="576" xmlns="http://www.w3.org/2000/svg" xmlns:xlink="http://www.w3.org/1999/xlink" xmlns:intaglio="http://purgatorydesign.com/namespaces/intaglio" intaglio:grid="36,36,1,1,0.5,#9999bf,1,0,0,0" intaglio:guides="0.8,#f0f,1,1" intaglio:ruler="1,7,7,1,10,0,0"><path fill="#fffffe" stroke="#000100" d="M22.6368,117 L713.837,117 L713.837,462.6 L22.6368,462.6 L22.6368,117 Z"/><path fill="#fffffe" stroke="#000100" d="M325.037,333 L411.437,333 L411.437,246.6 L325.037,246.6 L325.037,333 Z"/><path fill="none" stroke="#000100" stroke-dasharray="18,8,2,8" d="M-1,289.8 L724.5,289.8"/><path fill="none" stroke="#000100" stroke-dasharray="18,8,2,8" d="M367.25,100 L368.237,476"/><path fill="none" stroke="#000100" d="M453.65,100 L453.65,474.5"/><path fill="none" stroke="#000100" d="M367.25,142 L453.65,142"/><path fill="none" stroke="#000100" d="M453.65,142 L540.05,142"/><path fill="none" stroke="#000100" d="M540.05,142 L626.45,142"/><path fill="none" stroke="#000100" d="M626.45,142 L712.85,142"/><path fill="none" stroke="#000100" d="M367.25,100 L713.837,100"/><path fill="none" stroke="#000100" d="M540.543,100 L540.543,474.5"/><path fill="none" stroke="#000100" d="M626.45,100 L626.45,474.5"/></svg>
