<?xml version="1.0" encoding="UTF-8" standalone="no"?>
<!DOCTYPE svg PUBLIC "-//W3C//DTD SVG 1.1//EN" "http://www.w3.org/Graphics/SVG/1.1/DTD/svg11.dtd">
<!--Generated by Intaglio, www.PurgatoryDesign.com-->
<svg version="1.1" viewBox="0,0,734,576" width="734" height="576" xmlns="http://www.w3.org/2000/svg" xmlns:xlink="http://www.w3.org/1999/xlink" xmlns:intaglio="http://purgatorydesign.com/namespaces/intaglio" intaglio:grid="36,36,1,1,0.5,#9999bf,1,0,0,0" intaglio:guides="0.8,#f0f,0,1"><g><g><path fill="none" intaglio:arrow-start="1" stroke="#000100" d="M419.333,164.167 L419.333,335" intaglio:d="M419.333,154.667 L419.333,335"/><path fill="#000100" intaglio:omit="yes" d="M415.333,164.667 L419.333,154.667 L423.333,164.667"/></g><g><path fill="none" intaglio:arrow-start="1" stroke="#000100" d="M590,334.833 L419.167,334.833" intaglio:d="M599.5,334.833 L419.167,334.833"/><path fill="#000100" intaglio:omit="yes" d="M589.5,330.833 L599.5,334.833 L589.5,338.833"/></g></g><text fill="#000100" font-family="Times New Roman" font-size="14" transform="matrix(1,0,0,1,468.049,353.933)" xml:space="preserve"><tspan>Specific Volume (</tspan><tspan font-family="STIXGeneral">ğœˆ</tspan><tspan>)</tspan></text><text fill="#000100" font-family="Times New Roman" font-size="14" transform="matrix(1.11022e-16,-1,1,1.11022e-16,411.138,301.655)" xml:space="preserve"><tspan>Pressure (P)</tspan></text><text fill="#000100" font-family="Times New Roman" font-size="14" transform="matrix(1,0,0,1,571.049,326.933)" xml:space="preserve"><tspan>(0)</tspan></text><path fill="none" stroke="#000100" stroke-width="2" d="M431.667,179.333 C431.667,179.333,433.886,256.016,461.531,287.782 C491.807,322.572,539.489,328.333,539.489,328.333 L579.042,334.333"/><path fill="none" stroke="#000100" stroke-width="2" d="M463,180 C463,180,461.146,202.456,468.924,234.184 C479.667,278,523.983,292.667,523.983,292.667 L579.899,307.671"/><text fill="#000100" font-family="Times New Roman" font-size="14" transform="matrix(1,0,0,1,441.049,236.266)" xml:space="preserve"><tspan>(1)</tspan></text><path stroke="#000100" d="M442.333,240.667 C442.333,241.771,441.438,242.667,440.333,242.667 C439.229,242.667,438.333,241.771,438.333,240.667 C438.333,239.562,439.229,238.667,440.333,238.667 C441.438,238.667,442.333,239.562,442.333,240.667 Z"/><path stroke="#000100" d="M580.333,334.167 C580.333,335.271,579.438,336.167,578.333,336.167 C577.229,336.167,576.333,335.271,576.333,334.167 C576.333,333.062,577.229,332.167,578.333,332.167 C579.438,332.167,580.333,333.062,580.333,334.167 Z"/><path stroke="#000100" d="M504.583,281.917 C504.583,283.021,503.688,283.917,502.583,283.917 C501.479,283.917,500.583,283.021,500.583,281.917 C500.583,280.812,501.479,279.917,502.583,279.917 C503.688,279.917,504.583,280.812,504.583,281.917 Z"/><text fill="#000100" font-family="Times New Roman" font-size="14" transform="matrix(1,0,0,1,503.299,275.766)" xml:space="preserve"><tspan>(1')</tspan></text><text fill="#000100" font-family="Times New Roman" font-size="14" transform="matrix(1,0,0,1,505.126,189.721)" xml:space="preserve"><tspan>Hugoniot of unreacted explosive</tspan></text><text fill="#000100" font-family="Times New Roman" font-size="14" transform="matrix(1,0,0,1,505.549,227.183)" xml:space="preserve"><tspan>Hugoniot of detonation products</tspan></text><g><path fill="none" intaglio:arrow-end="1" stroke="#000100" d="M501.5,186.75 L444.707,206.833" intaglio:d="M501.5,186.75 L435.75,210"/><path fill="#000100" intaglio:omit="yes" d="M446.511,210.437 L435.75,210 L443.844,202.895"/></g><g><path fill="none" intaglio:arrow-end="1" stroke="#000100" d="M501.5,223.219 L479.645,231.414" intaglio:d="M501.5,223.219 L470.75,234.75"/><path fill="#000100" intaglio:omit="yes" d="M481.518,234.984 L470.75,234.75 L478.709,227.493"/></g><g><g><path fill="none" intaglio:arrow-start="1" stroke="#000100" d="M93.8333,164.167 L93.8333,335" intaglio:d="M93.8333,154.667 L93.8333,335"/><path fill="#000100" intaglio:omit="yes" d="M89.8333,164.667 L93.8333,154.667 L97.8333,164.667"/></g><g><path fill="none" intaglio:arrow-start="1" stroke="#000100" d="M264.5,334.833 L93.6667,334.833" intaglio:d="M274,334.833 L93.6667,334.833"/><path fill="#000100" intaglio:omit="yes" d="M264,330.833 L274,334.833 L264,338.833"/></g></g><text fill="#000100" font-family="Times New Roman" font-size="14" transform="matrix(1,0,0,1,142.549,353.933)" xml:space="preserve"><tspan>Specific Volume (</tspan><tspan font-family="STIXGeneral">ğœˆ</tspan><tspan>)</tspan></text><text fill="#000100" font-family="Times New Roman" font-size="14" transform="matrix(1.11022e-16,-1,1,1.11022e-16,85.6375,301.655)" xml:space="preserve"><tspan>Pressure (P)</tspan></text><text fill="#000100" font-family="Times New Roman" font-size="14" transform="matrix(1,0,0,1,245.549,326.933)" xml:space="preserve"><tspan>(0)</tspan></text><path fill="none" stroke="#000100" stroke-width="2" d="M106.167,179.333 C106.167,179.333,108.386,256.016,136.031,287.782 C166.307,322.572,213.989,328.333,213.989,328.333 L253.542,334.333"/><text fill="#000100" font-family="Times New Roman" font-size="14" transform="matrix(1,0,0,1,115.549,236.266)" xml:space="preserve"><tspan>(1)</tspan></text><path stroke="#000100" d="M116.833,240.667 C116.833,241.771,115.938,242.667,114.833,242.667 C113.729,242.667,112.833,241.771,112.833,240.667 C112.833,239.562,113.729,238.667,114.833,238.667 C115.938,238.667,116.833,239.562,116.833,240.667 Z"/><path stroke="#000100" d="M254.833,334.167 C254.833,335.271,253.938,336.167,252.833,336.167 C251.729,336.167,250.833,335.271,250.833,334.167 C250.833,333.062,251.729,332.167,252.833,332.167 C253.938,332.167,254.833,333.062,254.833,334.167 Z"/><text fill="#000100" font-family="Times New Roman" font-size="14" transform="matrix(1,0,0,1,179.626,189.721)" xml:space="preserve"><tspan>Hugoniot of inert material</tspan></text><g><path fill="none" intaglio:arrow-end="1" stroke="#000100" d="M176,186.75 L119.207,206.833" intaglio:d="M176,186.75 L110.25,210"/><path fill="#000100" intaglio:omit="yes" d="M121.011,210.437 L110.25,210 L118.344,202.895"/></g><g><path fill="none" intaglio:arrow-end="1" stroke="#000100" d="M252.886,334.167 L123.966,246.028" intaglio:d="M252.886,334.167 L116.124,240.667"/><path fill="#000100" intaglio:omit="yes" d="M122.121,249.613 L116.124,240.667 L126.636,243.008"/></g><g><path fill="none" intaglio:arrow-end="1" stroke="#000100" d="M578.333,334.167 L509.356,287.259" intaglio:d="M578.333,334.167 L501.5,281.917"/><path fill="#000100" intaglio:omit="yes" d="M507.52,290.848 L501.5,281.917 L512.018,284.232"/></g><g><path fill="none" intaglio:arrow-end="1" stroke="#000100" d="M578.333,334.167 L449.465,246.03" intaglio:d="M578.333,334.167 L441.624,240.667"/><path fill="#000100" intaglio:omit="yes" d="M447.62,249.614 L441.624,240.667 L452.136,243.01"/></g></svg>
