<?xml version="1.0" encoding="UTF-8" standalone="no"?>
<!DOCTYPE svg PUBLIC "-//W3C//DTD SVG 1.1//EN" "http://www.w3.org/Graphics/SVG/1.1/DTD/svg11.dtd">
<!--Generated by Intaglio, www.PurgatoryDesign.com-->
<svg version="1.1" viewBox="0,0,734,576" width="734" height="576" xmlns="http://www.w3.org/2000/svg" xmlns:xlink="http://www.w3.org/1999/xlink" xmlns:intaglio="http://purgatorydesign.com/namespaces/intaglio" intaglio:grid="36,36,1,1,0.5,#9999bf,1,0,0,0" intaglio:guides="0.8,#f0f,0,1"><defs><pattern id="60000104b4d0" width="8" height="8" patternUnits="userSpaceOnUse"><path fill="#b3b3b3" d="M0,0 L2,0 L2,2 L0,2 Z"/><path fill="#b3b3b3" d="M5,1 L7,1 L7,3 L5,3 Z"/><path fill="#b3b3b3" d="M2,2 L4,2 L4,4 L2,4 Z"/><path fill="#b3b3b3" d="M6,4 L8,4 L8,6 L6,6 Z"/><path fill="#b3b3b3" d="M1,5 L3,5 L3,7 L1,7 Z"/><path fill="#b3b3b3" d="M4,6 L6,6 L6,8 L4,8 Z"/></pattern></defs><pattern id="600001c60670" xlink:href="#60000104b4d0" patternTransform="matrix(1,0,0,1,0,0)"/><path fill="url(#600001c60670)" d="M559,323.649 L559,198.564 C559,198.564,556.351,206.405,554.5,211.009 C552.818,215.193,551.649,217.971,549.625,222 C548.126,224.985,546.995,226.91,545.25,229.758 C543.478,232.65,540.25,237.296,540.25,237.296 L540.25,323.649 Z"/><g><g><path fill="none" intaglio:arrow-start="1" stroke="#000100" d="M419.333,164.167 L419.333,335" intaglio:d="M419.333,154.667 L419.333,335"/><path fill="#000100" intaglio:omit="yes" d="M415.333,164.667 L419.333,154.667 L423.333,164.667"/></g><g><path fill="none" intaglio:arrow-start="1" stroke="#000100" d="M590,334.833 L419.167,334.833" intaglio:d="M599.5,334.833 L419.167,334.833"/><path fill="#000100" intaglio:omit="yes" d="M589.5,330.833 L599.5,334.833 L589.5,338.833"/></g></g><text fill="#000100" font-family="Times New Roman" font-size="14" transform="matrix(1,0,0,1,468.049,353.933)" xml:space="preserve"><tspan>Distance (x)</tspan></text><text fill="#000100" font-family="Times New Roman" font-size="14" transform="matrix(1.11022e-16,-1,1,1.11022e-16,411.138,301.655)" xml:space="preserve"><tspan>Pressure (P)</tspan></text><g><g><path fill="none" intaglio:arrow-start="1" stroke="#000100" d="M93.8333,164.167 L93.8333,335" intaglio:d="M93.8333,154.667 L93.8333,335"/><path fill="#000100" intaglio:omit="yes" d="M89.8333,164.667 L93.8333,154.667 L97.8333,164.667"/></g><g><path fill="none" intaglio:arrow-start="1" stroke="#000100" d="M264.5,334.833 L93.6667,334.833" intaglio:d="M274,334.833 L93.6667,334.833"/><path fill="#000100" intaglio:omit="yes" d="M264,330.833 L274,334.833 L264,338.833"/></g></g><text fill="#000100" font-family="Times New Roman" font-size="14" transform="matrix(1,0,0,1,142.549,353.933)" xml:space="preserve"><tspan>Distance (x)</tspan></text><text fill="#000100" font-family="Times New Roman" font-size="14" transform="matrix(1.11022e-16,-1,1,1.11022e-16,85.6375,301.655)" xml:space="preserve"><tspan>Pressure (P)</tspan></text><text fill="#000100" font-family="Times New Roman" font-size="14" transform="matrix(1,0,0,1,160.25,399.266)" xml:space="preserve"><tspan>(a)</tspan></text><text fill="#000100" font-family="Times New Roman" font-size="14" transform="matrix(1,0,0,1,478.356,399.266)" xml:space="preserve"><tspan>(b)</tspan></text><text fill="#000100" font-family="Times New Roman" font-size="14" text-anchor="middle" transform="matrix(1,0,0,1,478.943,316.685)" xml:space="preserve"><tspan>Piston</tspan></text><path fill="#fffffe" stroke="#000100" stroke-width="2" d="M228.814,322.047 L199.814,322.047 L199.814,198.564"/><path fill="#fffffe" stroke="#000100" stroke-width="2" d="M588,323.649 L559,323.649 L559,198.564"/><path fill="none" stroke="#000100" stroke-width="0.25" d="M502.284,244.833 L502.284,139.5"/><path fill="none" stroke="#000100" stroke-width="0.25" d="M540.25,224.382 L540.25,139.5"/><path fill="none" stroke="#000100" stroke-width="0.25" d="M559,192.219 L559,139.5"/><g><path fill="none" intaglio:arrow-start="1" intaglio:arrow-end="1" stroke="#000100" stroke-width="0.25" d="M510.003,144.25 L532.531,144.25" intaglio:d="M502.284,144.25 L540.25,144.25"/><path fill="#000100" intaglio:omit="yes" d="M510.409,147.5 L502.284,144.25 L510.409,141"/><path fill="#000100" intaglio:omit="yes" d="M532.125,141 L540.25,144.25 L532.125,147.5"/></g><g><path fill="none" intaglio:arrow-start="1" intaglio:arrow-end="1" stroke="#000100" stroke-width="0.25" d="M547.969,144.25 L551.281,144.25" intaglio:d="M540.25,144.25 L559,144.25"/><path fill="#000100" intaglio:omit="yes" d="M548.375,147.5 L540.25,144.25 L548.375,141"/><path fill="#000100" intaglio:omit="yes" d="M550.875,141 L559,144.25 L550.875,147.5"/></g><g><path fill="none" intaglio:arrow-start="1" intaglio:arrow-end="1" stroke="#000100" stroke-width="0.25" d="M566.719,144.25 L591.781,144.25" intaglio:d="M559,144.25 L599.5,144.25"/><path fill="#000100" intaglio:omit="yes" d="M567.125,147.5 L559,144.25 L567.125,141"/><path fill="#000100" intaglio:omit="yes" d="M591.375,141 L599.5,144.25 L591.375,147.5"/></g><path fill="none" stroke="#000100" stroke-width="0.25" d="M142.789,244.939 L142.789,139.5"/><path fill="none" stroke="#000100" stroke-width="0.25" d="M199.814,191.645 L199.814,139.395"/><g><path fill="none" intaglio:arrow-start="1" intaglio:arrow-end="1" stroke="#000100" stroke-width="0.25" d="M150.817,144.145 L192.096,144.145" intaglio:d="M143.098,144.145 L199.814,144.145"/><path fill="#000100" intaglio:omit="yes" d="M151.223,147.395 L143.098,144.145 L151.223,140.895"/><path fill="#000100" intaglio:omit="yes" d="M191.689,140.895 L199.814,144.145 L191.689,147.395"/></g><g><path fill="none" intaglio:arrow-start="1" intaglio:arrow-end="1" stroke="#000100" stroke-width="0.25" d="M207.533,144.395 L232.596,144.395" intaglio:d="M199.814,144.395 L240.314,144.395"/><path fill="#000100" intaglio:omit="yes" d="M207.939,147.645 L199.814,144.395 L207.939,141.145"/><path fill="#000100" intaglio:omit="yes" d="M232.189,141.145 L240.314,144.395 L232.189,147.645"/></g><text fill="#000100" font-family="Times New Roman" font-size="14" transform="matrix(1,0,0,1,233.261,75.9326)" xml:space="preserve"><tspan>Rarefaction</tspan></text><text fill="#000100" font-family="Times New Roman" font-size="14" transform="matrix(1,0,0,1,271.549,104.433)" xml:space="preserve"><tspan>Undisturbed</tspan></text><path fill="none" stroke="#000100" d="M228,72.5693 L171.456,144.395"/><path fill="none" stroke="#000100" d="M267.495,100.569 L220.064,144.395"/><path fill="none" stroke="#000100" stroke-width="2" d="M199.814,198.564 C199.814,198.564,198.182,202.592,196.814,205.875 C194.314,211.875,192.436,216.154,189.564,221.641 C186.366,227.752,183.426,232.572,178.564,237.464 C173.476,242.584,168.882,245.007,162.064,247.376 C156.171,249.424,151.591,249.766,147.574,250 C141.346,250.363,134.833,250.125,134.833,250.125"/><path fill="none" stroke="#000100" stroke-width="2" d="M134.833,250.199 L93.6667,250.199"/><g><path fill="none" intaglio:arrow-start="1" intaglio:arrow-end="1" stroke="#000100" stroke-width="0.25" d="M101.385,144.395 L135.07,144.395" intaglio:d="M93.6667,144.395 L142.789,144.395"/><path fill="#000100" intaglio:omit="yes" d="M101.792,147.645 L93.6667,144.395 L101.792,141.145"/><path fill="#000100" intaglio:omit="yes" d="M134.664,141.145 L142.789,144.395 L134.664,147.645"/></g><path fill="none" stroke="#000100" stroke-width="0.25" d="M93.6667,237.359 L93.6667,139.395"/><path fill="none" stroke="#000100" stroke-width="2" d="M496.388,251.802 L419.167,251.802"/><path fill="none" stroke="#000100" stroke-width="2" d="M559,198.564 C559,198.564,557.368,202.717,556,206.102 C553.5,212.288,551.621,216.7,548.75,222.357 C545.552,228.658,542.612,233.628,537.75,238.672 C532.662,243.95,528.068,246.449,521.25,248.892 C515.357,251.003,510.777,251.356,506.76,251.597 C500.532,251.971,494.019,251.726,494.019,251.726"/><g><path fill="#fff" stroke="#000100" stroke-width="0.983646" d="M540.25,229.758 L517.524,229.758 L517.524,244.833 L540.25,244.833 L540.25,229.758 Z"/><path fill="#fff" stroke="#000100" stroke-width="0.983646" d="M535.81,229.758 L535.81,244.833"/><path fill="#fff" stroke="#000100" stroke-width="0.983646" d="M517.524,239.153 L502.284,239.153 L502.284,235.438 L517.524,235.438 L517.524,239.153 Z"/></g><path fill="none" stroke="#000100" stroke-width="0.25" d="M419.167,237.464 L419.167,139.5"/><g><path fill="none" intaglio:arrow-start="1" intaglio:arrow-end="1" stroke="#000100" stroke-width="0.25" d="M426.885,144.25 L493.781,144.25" intaglio:d="M419.167,144.25 L501.5,144.25"/><path fill="#000100" intaglio:omit="yes" d="M427.292,147.5 L419.167,144.25 L427.292,141"/><path fill="#000100" intaglio:omit="yes" d="M493.375,141 L501.5,144.25 L493.375,147.5"/></g><text fill="#000100" font-family="Times New Roman" font-size="14" transform="matrix(1,0,0,1,182.118,52.6826)" xml:space="preserve"><tspan>Constant State</tspan></text><path fill="none" stroke="#000100" d="M176.857,49.3193 L118.228,144.395"/><g><path fill="none" intaglio:arrow-end="1" stroke="#000100" d="M501.5,313.303 L526.434,246.367" intaglio:d="M501.5,313.303 L529.75,237.464"/><path fill="#000100" intaglio:omit="yes" d="M522.511,245.439 L529.75,237.464 L530.008,248.231"/></g><text fill="#000100" font-family="Times New Roman" font-size="14" transform="matrix(1,0,0,1,630.299,104.183)" xml:space="preserve"><tspan>Undisturbed</tspan></text><path fill="none" stroke="#000100" d="M626.245,100.319 L579.25,143.742"/><text fill="#000100" font-family="Times New Roman" font-size="14" transform="matrix(1,0,0,1,579.011,67.1826)" xml:space="preserve"><tspan>Rarefaction</tspan></text><path fill="none" stroke="#000100" d="M576.25,62.418 L521.267,143.742"/><text fill="#000100" font-family="Times New Roman" font-size="14" transform="matrix(1,0,0,1,525.868,52.4326)" xml:space="preserve"><tspan>Constant State</tspan></text><path fill="none" stroke="#000100" d="M520.607,49.0693 L461.668,144.646"/><text fill="#000100" font-family="Times New Roman" font-size="14" transform="matrix(1,0,0,1,605.549,86.4326)" xml:space="preserve"><tspan>Reaction Zone</tspan></text><path fill="none" stroke="#000100" d="M602.748,82.418 L549.625,144.953"/></svg>
