<?xml version="1.0" encoding="UTF-8" standalone="no"?>
<!DOCTYPE svg PUBLIC "-//W3C//DTD SVG 1.1//EN" "http://www.w3.org/Graphics/SVG/1.1/DTD/svg11.dtd">
<!--Generated by Intaglio, www.PurgatoryDesign.com-->
<svg version="1.1" viewBox="0,0,734,576" width="734" height="576" xmlns="http://www.w3.org/2000/svg" xmlns:xlink="http://www.w3.org/1999/xlink" xmlns:intaglio="http://purgatorydesign.com/namespaces/intaglio" intaglio:grid="36,36,1,1,0.5,#9999bf,1,0,0,0" intaglio:guides="0.8,#f0f,0,1"><g><g><path fill="none" intaglio:arrow-start="1" stroke="#000100" stroke-width="1.56562" d="M228.928,135.51 L228.928,407" intaglio:d="M228.928,124.667 L228.928,407"/><path fill="#000100" intaglio:omit="yes" d="M224.362,136.081 L228.928,124.667 L233.493,136.081"/></g><g><path fill="none" intaglio:arrow-start="1" stroke="#000100" stroke-width="1.56562" d="M500.157,406.739 L228.667,406.739" intaglio:d="M511,406.739 L228.667,406.739"/><path fill="#000100" intaglio:omit="yes" d="M499.586,402.173 L511,406.739 L499.586,411.305"/></g></g><text fill="#000100" font-family="Times New Roman" font-size="14" transform="matrix(1,0,0,1,320.191,424.933)" xml:space="preserve"><tspan>Specific Volume (</tspan><tspan font-family="STIXGeneral">ğœˆ</tspan><tspan>)</tspan></text><text fill="#000100" font-family="Times New Roman" font-size="14" transform="matrix(1.11022e-16,-1,1,1.11022e-16,221.638,299.685)" xml:space="preserve"><tspan>Pressure (P)</tspan></text><text fill="#000100" font-family="Times New Roman" font-size="14" transform="matrix(1,0,0,1,404.145,399.711)" xml:space="preserve"><tspan>(0)</tspan></text><path fill="none" stroke="#000100" stroke-width="2" d="M272.643,157.031 C272.643,157.031,269.41,196.191,282.975,251.52 C301.708,327.929,378.99,353.506,378.99,353.506 L476.5,379.671"/><text fill="#000100" font-family="Times New Roman" font-size="14" transform="matrix(1,0,0,1,241.557,284.846)" xml:space="preserve"><tspan>(1)</tspan></text><path stroke="#000100" d="M265.307,281.483 C265.307,282.588,264.412,283.483,263.307,283.483 C262.203,283.483,261.307,282.588,261.307,281.483 C261.307,280.378,262.203,279.483,263.307,279.483 C264.412,279.483,265.307,280.378,265.307,281.483 Z"/><path stroke="#000100" d="M414.307,382.671 C414.307,383.775,413.412,384.671,412.307,384.671 C411.203,384.671,410.307,383.775,410.307,382.671 C410.307,381.566,411.203,380.671,412.307,380.671 C413.412,380.671,414.307,381.566,414.307,382.671 Z"/><path stroke="#000100" d="M338.557,330.421 C338.557,331.525,337.662,332.421,336.557,332.421 C335.453,332.421,334.557,331.525,334.557,330.421 C334.557,329.316,335.453,328.421,336.557,328.421 C337.662,328.421,338.557,329.316,338.557,330.421 Z"/><text fill="#000100" font-family="Times New Roman" font-size="14" transform="matrix(1,0,0,1,337.983,325.426)" xml:space="preserve"><tspan>(1')</tspan></text><g><path fill="none" intaglio:arrow-end="1" stroke="#000100" d="M412.307,382.671 L343.33,335.763" intaglio:d="M412.307,382.671 L335.474,330.421"/><path fill="#000100" intaglio:omit="yes" d="M341.494,339.352 L335.474,330.421 L345.992,332.736"/></g><g><path fill="none" intaglio:arrow-end="1" stroke="#000100" d="M412.307,382.671 L273.149,287.496" intaglio:d="M412.307,382.671 L265.307,282.133"/><path fill="#000100" intaglio:omit="yes" d="M271.303,291.08 L265.307,282.133 L275.82,284.476"/></g><path fill="none" stroke="#000100" stroke-width="2" d="M265.66,151.127 C265.66,151.127,262.268,192.206,276.497,250.244 C296.148,330.395,377.215,357.224,377.215,357.224 L479.5,384.671"/><path fill="none" stroke="#000100" stroke-width="2" d="M257.678,146.679 C257.678,146.679,254.112,189.786,269.072,250.691 C289.731,334.8,374.962,362.955,374.962,362.955 L482.5,391.756"/><path fill="none" stroke="#000100" stroke-width="2" d="M247.302,139.817 C247.302,139.817,243.572,184.913,259.222,248.629 C280.835,336.62,369.999,366.074,369.999,366.074 L482.5,396.205"/><path fill="none" stroke="#000100" stroke-width="2" d="M239.323,132.713 C239.323,132.713,235.394,180.202,251.875,247.299 C274.635,339.959,368.53,370.975,368.53,370.975 L487,402.705"/><g font-family="Times New Roman" font-size="14" transform="matrix(1,0,0,1,316.807,79.4167)" intaglio:type="text" xml:space="preserve"><text><tspan font-family="STIXGeneral">ğœ†</tspan><tspan>=0.00 (h</tspan><tspan>ugoniot of unreacted explosive)</tspan></text></g><text font-family="Times New Roman" font-size="14" transform="matrix(1,0,0,1,316.472,115.153)" xml:space="preserve"><tspan font-family="STIXGeneral">ğœ†</tspan><tspan>=0.50</tspan></text><text font-family="Times New Roman" font-size="14" transform="matrix(1,0,0,1,316.896,97.2848)" xml:space="preserve"><tspan font-family="STIXGeneral">ğœ†</tspan><tspan>=0.25</tspan></text><text font-family="Times New Roman" font-size="14" transform="matrix(1,0,0,1,317.231,133.021)" xml:space="preserve"><tspan font-family="STIXGeneral">ğœ†</tspan><tspan>=0.75</tspan></text><g font-family="Times New Roman" font-size="14" transform="matrix(1,0,0,1,316.807,150.889)" intaglio:type="text" xml:space="preserve"><text><tspan font-family="STIXGeneral">ğœ†</tspan><tspan>=1.00 (h</tspan><tspan>ugoniot of reacted explosives</tspan><tspan>)</tspan></text></g><g><path fill="none" intaglio:arrow-end="1" stroke="#000100" d="M314,76.0671 L246.498,126.991" intaglio:d="M314,76.0671 L238.914,132.713"/><path fill="#000100" intaglio:omit="yes" d="M249.306,129.883 L238.914,132.713 L244.488,123.497"/></g><g><path fill="none" intaglio:arrow-end="1" stroke="#000100" d="M314,92.6733 L254.687,134.354" intaglio:d="M314,92.6733 L246.914,139.817"/><path fill="#000100" intaglio:omit="yes" d="M257.396,137.34 L246.914,139.817 L252.796,130.794"/></g><g><path fill="none" intaglio:arrow-end="1" stroke="#000100" d="M314,110.541 L265.318,141.572" intaglio:d="M314,110.541 L257.307,146.679"/><path fill="#000100" intaglio:omit="yes" d="M267.89,144.676 L257.307,146.679 L263.59,137.93"/></g><g><path fill="none" intaglio:arrow-end="1" stroke="#000100" d="M314,128.41 L273.916,147.111" intaglio:d="M314,128.41 L265.307,151.127"/><path fill="#000100" intaglio:omit="yes" d="M276.061,150.524 L265.307,151.127 L272.678,143.274"/></g><g><path fill="none" intaglio:arrow-end="1" stroke="#000100" d="M314,146.679 L281.527,154.741" intaglio:d="M314,146.679 L272.307,157.031"/><path fill="#000100" intaglio:omit="yes" d="M282.977,158.503 L272.307,157.031 L281.049,150.739"/></g></svg>
