<?xml version="1.0" encoding="UTF-8" standalone="no"?>
<!DOCTYPE svg PUBLIC "-//W3C//DTD SVG 1.1//EN" "http://www.w3.org/Graphics/SVG/1.1/DTD/svg11.dtd">
<!--Generated by Intaglio, www.PurgatoryDesign.com-->
<svg version="1.1" viewBox="0,0,734,576" width="734" height="576" xmlns="http://www.w3.org/2000/svg" xmlns:xlink="http://www.w3.org/1999/xlink" xmlns:intaglio="http://purgatorydesign.com/namespaces/intaglio" intaglio:grid="36,36,1,1,0.5,#9999bf,1,0,0,0" intaglio:guides="0.8,#f0f,1,1"><path fill="#fffffe" stroke="#000100" d="M206,84.6667 L279.333,84.6667 L279.333,129.333 L206,129.333 L206,84.6667 Z"/><path fill="none" stroke="#000100" d="M262,84.6667 L262,129.333"/><path fill="#fffffe" stroke="#000100" d="M154,102.5 L206,102.5 L206,111.5 L154,111.5 L154,102.5 Z"/><g><path fill="none" intaglio:arrow-start="1" stroke="#000100" d="M279.333,39.5 L279.333,129.333" intaglio:d="M279.333,30 L279.333,129.333"/><path fill="#000100" intaglio:omit="yes" d="M275.333,40 L279.333,30 L283.333,40"/></g><path fill="none" stroke="#000100" d="M279.333,129.333 L571.333,129.333"/><path fill="#fffffe" stroke="#000100" d="M279.333,105.944 C279.333,105.944,283.751,105.222,286.394,106.826 C289.297,108.588,291.795,111.367,293.455,114.329 C294.967,117.025,295.94,119.121,297.427,121.831 C298.498,123.783,300.347,126.025,302.282,127.127 C305.948,129.215,310.667,129.333,310.667,129.333 L310.667,129.333"/><text fill="#000100" font-family="Times New Roman" font-size="14" transform="matrix(2.35814e-16,-1,1,2.35814e-16,271.721,69.4961)" xml:space="preserve"><tspan>(Pressure)</tspan></text><text fill="#000100" font-family="Times New Roman" font-size="14" transform="matrix(1,0,0,1,312.667,144.667)" xml:space="preserve"><tspan>Speed</tspan></text><text fill="#000100" font-family="Times New Roman" font-size="14" transform="matrix(1,0,0,1,99.8906,213.844)" xml:space="preserve"><tspan>Accelerating</tspan><tspan x="0" y="16">Piston</tspan></text><g><path fill="none" intaglio:arrow-end="1" stroke="#000100" d="M100,236.769 L131.198,236.769" intaglio:d="M100,236.769 L140.698,236.769"/><path fill="#000100" intaglio:omit="yes" d="M130.698,232.769 L140.698,236.769 L130.698,240.769"/></g><text fill="#000100" font-family="Times New Roman" font-size="14" transform="matrix(1,0,0,1,301.375,102.789)" xml:space="preserve"><tspan>Speed of Sound, c</tspan><tspan baseline-shift="sub">0</tspan></text><g><path fill="none" intaglio:arrow-end="1" stroke="#000100" d="M292.333,112.892 L334.414,112.892" intaglio:d="M292.333,112.892 L343.914,112.892"/><path fill="#000100" intaglio:omit="yes" d="M333.914,108.892 L343.914,112.892 L333.914,116.892"/></g><path fill="#fffffe" stroke="#000100" d="M206,215.492 L279.333,215.492 L279.333,260.159 L206,260.159 L206,215.492 Z"/><path fill="none" stroke="#000100" d="M262,215.492 L262,260.159"/><path fill="#fffffe" stroke="#000100" d="M154,233.325 L206,233.325 L206,242.325 L154,242.325 L154,233.325 Z"/><path fill="none" stroke="#000100" d="M279.333,129.333 L279.333,260.159"/><path fill="none" stroke="#000100" d="M279.333,260.159 L571.333,260.159"/><text fill="#000100" font-family="Times New Roman" font-size="14" transform="matrix(1,0,0,1,312.667,275.492)" xml:space="preserve"><tspan>Speed</tspan></text><text fill="#000100" font-family="Times New Roman" font-size="14" transform="matrix(1,0,0,1,290.354,221.509)" xml:space="preserve"><tspan>Speed of Sound, c</tspan><tspan baseline-shift="sub">1</tspan></text><g><path fill="none" intaglio:arrow-end="1" stroke="#000100" d="M306,243.05 L348.081,243.05" intaglio:d="M306,243.05 L357.581,243.05"/><path fill="#000100" intaglio:omit="yes" d="M347.581,239.05 L357.581,243.05 L347.581,247.05"/></g><g><path fill="none" intaglio:arrow-end="1" stroke="#000100" d="M288.917,230.036 L323.997,230.036" intaglio:d="M288.917,230.036 L333.497,230.036"/><path fill="#000100" intaglio:omit="yes" d="M323.497,226.036 L333.497,230.036 L323.497,234.036"/></g><text fill="#000100" font-family="Times New Roman" font-size="14" transform="matrix(1,0,0,1,349.404,236.992)" xml:space="preserve"><tspan>c</tspan><tspan baseline-shift="sub">0</tspan></text><path fill="#fffffe" stroke="#000100" d="M206,346.317 L279.333,346.317 L279.333,390.984 L206,390.984 L206,346.317 Z"/><path fill="none" stroke="#000100" d="M262,346.317 L262,390.984"/><path fill="#fffffe" stroke="#000100" d="M154,364.15 L206,364.15 L206,373.15 L154,373.15 L154,364.15 Z"/><path fill="none" stroke="#000100" d="M279.333,260.159 L279.333,390.984"/><path fill="none" stroke="#000100" d="M279.333,390.984 L571.333,390.984"/><text fill="#000100" font-family="Times New Roman" font-size="14" transform="matrix(1,0,0,1,294.938,337.084)" xml:space="preserve"><tspan>Speed of Sound, c</tspan><tspan baseline-shift="sub">2</tspan></text><text fill="#000100" font-family="Times New Roman" font-size="14" transform="matrix(1,0,0,1,361.247,369.234)" xml:space="preserve"><tspan>c</tspan><tspan baseline-shift="sub">0</tspan></text><text fill="#000100" font-family="Times New Roman" font-size="14" transform="matrix(1,0,0,1,343.154,354.807)" xml:space="preserve"><tspan>c</tspan><tspan baseline-shift="sub">1</tspan></text><g><path fill="none" intaglio:arrow-end="1" stroke="#000100" d="M286.296,345.195 L328.377,345.195" intaglio:d="M286.296,345.195 L337.877,345.195"/><path fill="#000100" intaglio:omit="yes" d="M327.877,341.195 L337.877,345.195 L327.877,349.195"/></g><path fill="#fffffe" stroke="#000100" d="M206,477.142 L279.333,477.142 L279.333,521.809 L206,521.809 L206,477.142 Z"/><path fill="none" stroke="#000100" d="M262,477.142 L262,521.809"/><path fill="#fffffe" stroke="#000100" d="M154,494.976 L206,494.976 L206,503.976 L154,503.976 L154,494.976 Z"/><path fill="none" stroke="#000100" d="M279.333,390.984 L279.333,521.809"/><g><path fill="none" intaglio:arrow-end="1" stroke="#000100" d="M279.333,521.809 L561.833,521.809" intaglio:d="M279.333,521.809 L571.333,521.809"/><path fill="#000100" intaglio:omit="yes" d="M561.333,517.809 L571.333,521.809 L561.333,525.809"/></g><text fill="#000100" font-family="Times New Roman" font-size="14" transform="matrix(1,0,0,1,544.086,538.476)" xml:space="preserve"><tspan>(Speed)</tspan></text><text fill="#000100" font-family="Times New Roman" font-size="14" transform="matrix(1,0,0,1,309.68,469.566)" xml:space="preserve"><tspan>Shockwave, U</tspan></text><g><path fill="none" intaglio:arrow-end="1" stroke="#000100" d="M292.501,480.795 L334.582,480.795" intaglio:d="M292.501,480.795 L344.082,480.795"/><path fill="#000100" intaglio:omit="yes" d="M334.082,476.795 L344.082,480.795 L334.082,484.795"/></g><path fill="#fffffe" stroke="#000100" d="M279.259,436.667 L292.333,436.667 L292.333,521.809 L279.259,521.809 L279.259,436.667 Z"/><g><path fill="none" intaglio:arrow-end="1" stroke="#000100" d="M314.593,373.709 L356.673,373.709" intaglio:d="M314.593,373.709 L366.173,373.709"/><path fill="#000100" intaglio:omit="yes" d="M356.173,369.709 L366.173,373.709 L356.173,377.709"/></g><g><path fill="none" intaglio:arrow-end="1" stroke="#000100" d="M297.667,359.156 L339.173,359.156" intaglio:d="M297.667,359.156 L348.673,359.156"/><path fill="#000100" intaglio:omit="yes" d="M338.673,355.156 L348.673,359.156 L338.673,363.156"/></g><path fill="#fffffe" stroke="#000100" d="M279.333,223.463 C279.333,223.463,282.97,222.742,285.145,224.345 C287.535,226.107,290.967,233.807,292.333,236.769"/><path fill="#fffffe" stroke="#000100" d="M292.333,236.769 C292.333,236.769,296.751,236.048,299.394,237.651 C302.297,239.413,304.795,242.192,306.455,245.154 C307.967,247.851,308.94,249.946,310.427,252.656 C311.498,254.608,313.347,256.85,315.282,257.952 C318.948,260.04,323.667,260.159,323.667,260.159 L323.667,260.159"/><path fill="#fffffe" stroke="#000100" d="M279.259,337.664 C279.259,337.664,281.468,336.942,282.79,338.546 C284.241,340.308,285.49,343.087,286.32,346.049 C287.076,348.745,288.173,351.578,288.917,354.288"/><path fill="#fff" stroke="#000100" d="M288.917,354.288 C288.917,354.288,292.553,353.567,294.729,355.171 C297.118,356.932,300.55,364.632,301.917,367.594"/><path fill="#fff" stroke="#000100" d="M301.917,367.594 C301.917,367.594,306.335,366.873,308.978,368.477 C311.881,370.238,314.378,373.017,316.039,375.979 C317.551,378.676,318.523,380.771,320.011,383.481 C321.082,385.433,322.93,387.675,324.865,388.777 C328.531,390.865,333.25,390.984,333.25,390.984 L333.25,390.984"/><text fill="#000100" font-family="Times New Roman" font-size="14" transform="matrix(1,0,0,1,480.641,252.771)" xml:space="preserve"><tspan>Undisturbed Air</tspan></text><text fill="#000100" font-family="Times New Roman" font-size="14" transform="matrix(1,0,0,1,49.0308,110.149)" xml:space="preserve"><tspan>(a)</tspan></text><text fill="#000100" font-family="Times New Roman" font-size="14" transform="matrix(1,0,0,1,49.0308,240.132)" xml:space="preserve"><tspan>(b)</tspan></text><text fill="#000100" font-family="Times New Roman" font-size="14" transform="matrix(1,0,0,1,49.0308,370.715)" xml:space="preserve"><tspan>(c)</tspan></text><text fill="#000100" font-family="Times New Roman" font-size="14" transform="matrix(1,0,0,1,49.0308,502.839)" xml:space="preserve"><tspan>(d)</tspan></text></svg>
