<?xml version="1.0" encoding="UTF-8" standalone="no"?>
<!DOCTYPE svg PUBLIC "-//W3C//DTD SVG 1.1//EN" "http://www.w3.org/Graphics/SVG/1.1/DTD/svg11.dtd">
<!--Generated by Intaglio, www.PurgatoryDesign.com-->
<svg version="1.1" viewBox="0,0,734,576" width="734" height="576" xmlns="http://www.w3.org/2000/svg" xmlns:xlink="http://www.w3.org/1999/xlink" xmlns:intaglio="http://purgatorydesign.com/namespaces/intaglio" intaglio:grid="36,36,1,1,0.5,#9999bf,1,0,0,0" intaglio:guides="0.8,#f0f,0,1"><path fill="none" stroke="#000100" d="M119,222 L623,222"/><path fill="none" stroke="#000100" d="M119,307.667 L624,307.667"/><path fill="#fffffe" stroke="#000100" d="M635,265 C635,288.748,629.404,308,622.5,308 C615.596,308,610,288.748,610,265 C610,241.252,615.596,222,622.5,222 C629.404,222,635,241.252,635,265 Z"/><path fill="none" stroke="#000100" d="M119.083,222.333 C119.083,222.333,116.269,223.147,115.083,224.333 C112.712,226.705,112.247,229.188,111.083,232.333 C110.01,235.234,109.678,237.299,109.083,240.333 C108.574,242.936,108.373,244.698,108.083,247.333 C107.55,252.194,107.271,255.448,107.083,260.333 C106.968,263.331,106.976,265.335,107.083,268.333 C107.271,273.593,107.523,277.1,108.083,282.333 C108.365,284.97,108.574,286.731,109.083,289.333 C109.678,292.368,110.01,294.433,111.083,297.333 C112.247,300.479,113.122,302.612,115.083,305.333 C115.703,306.194,116.223,306.713,117.083,307.333 C117.764,307.824,119.083,308.333,119.083,308.333 L119.083,308.333 L119.083,308.333"/><path fill="none" stroke="#000100" stroke-dasharray="2" d="M119.018,222.334 C119.018,222.334,121.832,223.148,123.018,224.334 C125.389,226.706,125.854,229.188,127.018,232.334 C128.091,235.234,128.423,237.299,129.018,240.334 C129.527,242.936,129.728,244.698,130.018,247.334 C130.551,252.194,130.83,255.448,131.018,260.334 C131.133,263.332,131.125,265.336,131.018,268.334 C130.83,273.594,130.578,277.1,130.018,282.334 C129.736,284.971,129.527,286.732,129.018,289.334 C128.423,292.369,128.091,294.434,127.018,297.334 C125.854,300.48,124.979,302.613,123.018,305.334 C122.398,306.194,121.878,306.714,121.018,307.334 C120.337,307.824,119.018,308.334,119.018,308.334 L119.018,308.334 L119.018,308.334"/><g><path fill="none" stroke="#000100" d="M371.083,222 C371.083,222,368.269,222.814,367.083,224 C364.712,226.372,364.247,228.854,363.083,232 C362.01,234.9,361.678,236.965,361.083,240 C360.574,242.602,360.373,244.364,360.083,247 C359.55,251.86,359.271,255.114,359.083,260 C358.968,262.998,358.976,265.002,359.083,268 C359.271,273.26,359.523,276.767,360.083,282 C360.365,284.637,360.574,286.398,361.083,289 C361.678,292.035,362.01,294.1,363.083,297 C364.247,300.146,365.122,302.279,367.083,305 C367.703,305.86,368.223,306.38,369.083,307 C369.764,307.49,371.083,308,371.083,308 L371.083,308 L371.083,308"/><path fill="none" stroke="#000100" stroke-dasharray="2" d="M371,222.001 C371,222.001,373.814,222.815,375,224.001 C377.372,226.373,377.836,228.855,379,232.001 C380.073,234.901,380.406,236.967,381,240.001 C381.51,242.603,381.711,244.365,382,247.001 C382.534,251.861,382.812,255.115,383,260.001 C383.115,262.999,383.107,265.003,383,268.001 C382.812,273.261,382.56,276.768,382,282.001 C381.718,284.638,381.51,286.399,381,289.001 C380.406,292.036,380.073,294.101,379,297.001 C377.836,300.147,376.961,302.28,375,305.001 C374.38,305.862,373.86,306.381,373,307.001 C372.32,307.492,371,308.001,371,308.001 L371,308.001 L371,308.001"/></g><g><path fill="none" intaglio:arrow-end="1" stroke="#000100" d="M372,265 L411.5,265" intaglio:d="M372,265 L421,265"/><path fill="#000100" intaglio:omit="yes" d="M411,261 L421,265 L411,269"/></g><text font-family="Times" font-size="14" transform="matrix(1,0,0,1,432,267)" xml:space="preserve"><tspan>Shockwave, U</tspan></text><text font-family="Times" font-size="14" transform="matrix(1,0,0,1,397.333,299)" xml:space="preserve"><tspan>P</tspan><tspan baseline-shift="sub">0</tspan><tspan>, </tspan><tspan font-family="STIXGeneral">ğœŒ</tspan><tspan baseline-shift="sub">0</tspan><tspan>, e</tspan><tspan baseline-shift="sub">0</tspan><tspan>, u</tspan><tspan baseline-shift="sub">0</tspan></text><text font-family="Times" font-size="14" transform="matrix(1,0,0,1,258.333,299)" xml:space="preserve"><tspan>P</tspan><tspan baseline-shift="sub">1</tspan><tspan>, </tspan><tspan font-family="STIXGeneral">ğœŒ</tspan><tspan baseline-shift="sub">1</tspan><tspan>, e</tspan><tspan baseline-shift="sub">1</tspan><tspan>, u</tspan><tspan baseline-shift="sub">1</tspan></text></svg>
